<?xml version="1.0" encoding="utf-8"?>
<!-- Generator: Adobe Illustrator 17.0.0, SVG Export Plug-In . SVG Version: 6.00 Build 0)  -->
<!DOCTYPE svg PUBLIC "-//W3C//DTD SVG 1.1//EN" "http://www.w3.org/Graphics/SVG/1.1/DTD/svg11.dtd">
<svg version="1.1" id="Layer_1" xmlns="http://www.w3.org/2000/svg" xmlns:xlink="http://www.w3.org/1999/xlink" x="0px" y="0px"
	 preserveAspectRatio="xMidYMin" viewBox="0 0 222.068 222.068" enable-background="new 0 0 222.068 222.068"
	 xml:space="preserve">
<g>
	<path fill="#54A3DA" d="M110.804,3.163c-59.27,0-107.479,48.212-107.479,107.473c0,59.265,48.209,107.474,107.479,107.474
		c59.252,0,107.465-48.209,107.465-107.474C218.269,51.375,170.056,3.163,110.804,3.163z"/>
	<path fill="#F1616E" d="M110.804,13.025c-17.283,0-31.941,27.645-37.235,66.069c-0.169,1.236-0.333,2.487-0.478,3.746
		c-0.723,6.047-1.213,12.335-1.458,18.808c-0.117,2.962-0.175,5.956-0.175,8.988c0,3.029,0.058,6.029,0.175,8.985
		c0.245,6.472,0.735,12.764,1.458,18.811c8.104,1.049,16.769,1.761,25.807,2.099c3.907,0.146,7.872,0.233,11.907,0.233
		c4.023,0,8-0.088,11.895-0.233c9.049-0.338,17.708-1.05,25.819-2.099c0.892-0.114,1.77-0.239,2.659-0.368
		c33.754-4.74,57.235-15.232,57.235-27.428C208.412,56.724,164.707,13.025,110.804,13.025z"/>
	<path fill="#FFFFFF" d="M151.177,83.205c-0.979-1.428-2.029-2.796-3.148-4.11c-8.956-10.557-22.297-17.265-37.224-17.265
		c-4.839,0-9.148,7.407-11.907,18.909c-1.096,4.586-1.947,9.819-2.495,15.498c-0.432,4.551-0.665,9.391-0.665,14.399
		s0.233,9.849,0.665,14.396c4.554,0.432,9.387,0.664,14.402,0.664c5.009,0,9.842-0.232,14.396-0.664
		c10.011-0.95,18.653-2.875,24.775-5.411c6.046-2.501,9.624-5.615,9.624-8.985C159.599,100.468,156.494,91.024,151.177,83.205z"/>
</g>
</svg>
