<svg version="1.1" xmlns="http://www.w3.org/2000/svg" xmlns:xlink="http://www.w3.org/1999/xlink" x="0px" y="0px"
  preserveAspectRatio="xMinYMin" viewBox="0 0 73.356 61" enable-background="new 0 0 73.356 61" xml:space="preserve">
  <path d="M5.27,33.226l22.428,22.428c1.562,1.562,4.095,1.562,5.657,0c1.562-1.562,1.562-4.095,0-5.657L17.77,34.413h48.514
  c2.209,0,4-1.791,4-4s-1.791-4-4-4H17.749l15.604-15.582c1.563-1.561,1.565-4.094,0.004-5.657C32.576,4.391,31.552,4,30.527,4
  c-1.023,0-2.046,0.39-2.827,1.169L5.272,27.567c-0.751,0.75-1.173,1.768-1.173,2.829C4.098,31.458,4.52,32.476,5.27,33.226z"/>
</svg>
