<svg version="1.1" id="Layer_1" xmlns="http://www.w3.org/2000/svg" xmlns:xlink="http://www.w3.org/1999/xlink" x="0px" y="0px"
	 preserveAspectRatio="xMinYMin" viewBox="0 0 65.947 65.41" enable-background="new 0 0 65.947 65.41" xml:space="preserve">
<g>
	<path d="M22.014,15.949c2.428-1.575,5.211-2.632,8.205-3.03c0,0,1.846-0.106,2.797-0.097C44.113,12.932,53.022,22,52.954,33.088
		l11.226-1.075C63.884,19.558,56.337,8.875,45.553,4.081c-0.043-0.025-0.07-0.061-0.115-0.08c-3.756-1.645-7.896-2.578-12.25-2.621
		c-0.014,0-0.025,0.002-0.039,0.002c-0.006,0-0.012-0.002-0.02-0.002c-0.691-0.006-1.371,0.021-2.051,0.066
		c-0.475,0.026-0.941,0.073-1.414,0.12c-0.072,0.008-0.148,0.011-0.221,0.02v0.006c-5.494,0.601-10.578,2.603-14.848,5.678
		l-3.068-4.523L7.038,21.636l18.849-2.034L22.014,15.949z"/>
	<path d="M44.204,48.517c-2.428,1.575-5.211,2.632-8.205,3.03c0,0-1.846,0.106-2.797,0.097c-11.098-0.11-20.007-9.178-19.938-20.266
		L2.038,32.454c0.296,12.454,7.843,23.138,18.627,27.932c0.043,0.025,0.07,0.06,0.115,0.08c3.756,1.644,7.896,2.578,12.25,2.621
		c0.014,0,0.025-0.002,0.039-0.002c0.006,0,0.012,0.002,0.02,0.002c0.691,0.006,1.371-0.021,2.051-0.065
		c0.475-0.026,0.941-0.073,1.414-0.12c0.072-0.008,0.148-0.011,0.221-0.02v-0.006c5.494-0.601,10.578-2.604,14.848-5.678
		l3.068,4.523L59.18,42.83l-18.849,2.034L44.204,48.517z"/>
</g>
</svg>
