<svg version="1.1" id="Layer_1" xmlns="http://www.w3.org/2000/svg" xmlns:xlink="http://www.w3.org/1999/xlink" x="0px" y="0px"
    preserveAspectRatio="xMidYMin" height="30px" viewBox="24.5 40.5 744 224" enable-background="new 24.5 40.5 744 224" xml:space="preserve">
  <g>
    <g>
      <path fill="#53A3DA" d="M136.168,45.527C76.898,45.527,28.689,93.739,28.689,153c0,59.265,48.209,107.474,107.479,107.474
        c59.252,0,107.465-48.209,107.465-107.474C243.633,93.739,195.42,45.527,136.168,45.527z"/>
      <path fill="#F1606D" d="M136.168,55.389c-17.283,0-31.941,27.645-37.235,66.069c-0.169,1.236-0.333,2.487-0.478,3.746
        c-0.723,6.047-1.213,12.335-1.458,18.808c-0.117,2.962-0.175,5.956-0.175,8.988c0,3.029,0.058,6.029,0.175,8.985
        c0.245,6.472,0.735,12.764,1.458,18.811c8.104,1.049,16.769,1.761,25.807,2.099c3.907,0.146,7.872,0.233,11.907,0.233
        c4.023,0,8-0.088,11.895-0.233c9.049-0.338,17.708-1.05,25.819-2.099c0.892-0.114,1.77-0.239,2.659-0.368
        c33.754-4.74,57.235-15.232,57.235-27.428C233.776,99.088,190.071,55.389,136.168,55.389z"/>
      <path fill="#FFFFFF" d="M176.541,125.569c-0.979-1.428-2.029-2.796-3.148-4.11c-8.956-10.557-22.297-17.265-37.224-17.265
        c-4.839,0-9.148,7.407-11.907,18.909c-1.096,4.586-1.947,9.819-2.495,15.498c-0.432,4.551-0.665,9.391-0.665,14.399
        s0.233,9.849,0.665,14.396c4.554,0.432,9.387,0.664,14.402,0.664c5.009,0,9.842-0.232,14.396-0.664
        c10.011-0.95,18.653-2.875,24.775-5.411c6.046-2.501,9.624-5.615,9.624-8.985C184.963,142.832,181.858,133.388,176.541,125.569z"
        />
    </g>
    <g>
      <path fill="#231F20" d="M344.891,100.053c12.585,0,22.816,6.138,29.262,13.062l-10.064,11.326
        c-5.353-5.192-11.175-8.495-19.041-8.495c-16.839,0-28.953,14.16-28.953,37.291c0,23.448,11.169,37.608,28.32,37.608
        c9.128,0,15.895-3.775,21.717-10.228l10.067,11.169c-8.335,9.598-19.038,14.95-32.099,14.95c-26.119,0-46.731-18.88-46.731-53.025
        C297.37,120.036,318.454,100.053,344.891,100.053z"/>
      <path fill="#231F20" d="M416.961,125.701c19.352,0,36.822,14.793,36.822,40.597c0,25.647-17.471,40.439-36.822,40.439
        c-19.197,0-36.66-14.792-36.66-40.439C380.301,140.494,397.764,125.701,416.961,125.701z M416.961,191.945
        c11.33,0,18.25-10.228,18.25-25.647c0-15.577-6.92-25.804-18.25-25.804s-18.094,10.227-18.094,25.804
        C398.867,181.717,405.631,191.945,416.961,191.945z"/>
      <path fill="#231F20" d="M459.771,127.589h14.943l1.26,13.688h0.629c5.506-10.07,13.691-15.577,21.871-15.577
        c3.938,0,6.455,0.472,8.811,1.574l-3.148,15.734c-2.67-0.784-4.717-1.257-8.018-1.257c-6.139,0-13.539,4.245-18.256,15.893v47.203
        h-18.092L459.771,127.589L459.771,127.589z"/>
      <path fill="#231F20" d="M541.121,125.701c20.928,0,31.941,15.107,31.941,36.667c0,3.458-0.314,6.604-0.787,8.495h-49.09
        c1.57,14.003,10.379,21.869,22.811,21.869c6.613,0,12.273-2.041,17.941-5.662l6.135,11.326
        c-7.395,4.878-16.676,8.341-26.432,8.341c-21.404,0-38.08-14.95-38.08-40.439C505.561,141.12,523.023,125.701,541.121,125.701z
         M557.326,159.376c0-12.277-5.189-19.671-15.732-19.671c-9.125,0-16.996,6.768-18.57,19.671H557.326z"/>
      <path fill="#F1606D" d="M600.602,152.607c0-32.729,17.785-53.344,42.799-53.344c24.863,0,42.641,20.615,42.641,53.344
        c0,32.889-17.777,54.13-42.641,54.13C618.387,206.737,600.602,185.496,600.602,152.607z M678.49,152.607
        c0-28.639-14.158-46.731-35.09-46.731c-21.084,0-35.248,18.093-35.248,46.731c0,28.796,14.164,47.521,35.248,47.521
        C664.332,200.128,678.49,181.403,678.49,152.607z"/>
      <path fill="#53A4D9" d="M699.738,186.125c7.557,8.495,18.412,14.003,30.529,14.003c15.732,0,25.807-8.499,25.807-20.767
        c0-12.904-8.494-17.154-18.723-21.717l-15.736-7.082c-8.969-3.936-20.934-10.385-20.934-25.808
        c0-14.947,12.904-25.492,30.059-25.492c12.588,0,22.658,5.665,28.949,12.435l-4.244,4.878c-5.982-6.452-14.32-10.7-24.705-10.7
        c-13.691,0-22.816,7.239-22.816,18.565c0,11.962,10.385,16.521,17.936,19.985l15.738,6.921
        c11.486,5.195,21.713,11.647,21.713,27.539s-13.061,27.851-33.201,27.851c-15.107,0-26.75-6.451-34.932-15.576L699.738,186.125z"
        />
    </g>
  </g>
</svg>
