<svg version="1.1" xmlns="http://www.w3.org/2000/svg" xmlns:xlink="http://www.w3.org/1999/xlink" x="0px" y="0px"
  preserveAspectRatio="xMinYMin" viewBox="0 0 72.556 61" enable-background="new 0 0 72.556 61" xml:space="preserve">
  <path d="M34.521,8v11.088v23v10.737c0,2.209,1.791,4,4,4c2.209,0,4-1.791,4-4V42.067V19.109V8c0-2.209-1.791-4-4-4
  C36.312,4,34.521,5.791,34.521,8z"/>
  <path d="M16.109,34.412h11.088h23h10.737c2.209,0,4-1.791,4-4c0-2.209-1.791-4-4-4H50.175H27.217H16.109c-2.209,0-4,1.791-4,4
  C12.109,32.621,13.9,34.412,16.109,34.412z"/>
</svg>
